<svg width="114" height="44" viewBox="0 0 114 44" fill="none" xmlns="http://www.w3.org/2000/svg">
<g clip-path="url(#clip0_696_1693)">
<path d="M15.2984 2.68979C14.4623 3.36359 13.5383 4.19798 12.7937 5.12864C11.4723 6.77986 10.1619 8.64138 9.03562 10.504C8.27478 11.7622 7.28763 13.6715 6.7483 15.076C6.03059 16.9451 5.60547 18.2546 5.21155 20.3082C4.65662 23.2012 4.73315 26.1703 5.29676 28.9693C6.126 33.0872 8.77993 36.5327 11.432 39.3296C13.5067 41.5174 16.296 42.9487 18.7468 44L19.0001 43.1971C16.5717 42.1559 13.9978 40.7652 12.0095 38.6659C9.45167 35.9651 7.08917 32.6716 6.07007 28.7468C5.44938 26.3578 5.30529 23.7366 5.63096 21.1983C5.91627 18.9746 6.63351 16.7461 7.3322 14.7198C7.90663 13.0542 8.57635 11.7566 9.39325 10.39C10.429 8.65707 11.5672 6.96717 12.7772 5.42413C13.5605 4.4253 14.6079 3.52357 15.4492 2.8456L15.2984 2.68979Z" fill="#16161D"/>
<path d="M14.2365 41.5455C14.2365 41.5455 12.5151 40.8925 11.149 41.0849C8.98021 41.3902 8.78027 43.0057 8.78027 43.0057C8.78027 43.0057 9.65034 43.6539 11.5165 43.4076C13.7027 43.119 14.2365 41.5455 14.2365 41.5455Z" fill="#16161D"/>
<path d="M11.3051 39.1333C11.3051 39.1333 9.85442 38.3077 8.47897 38.32C6.09783 38.3411 5.95508 39.8587 5.95508 39.8587C5.95508 39.8587 6.81697 40.6048 8.72406 40.5741C10.9232 40.5387 11.3051 39.1333 11.3051 39.1333Z" fill="#16161D"/>
<path d="M9.13616 36.5954C9.13616 36.5954 7.75673 35.1448 6.42252 34.7437C4.11271 34.0492 3.34766 35.6618 3.34766 35.6618C3.34766 35.6618 4.20625 36.8978 6.05903 37.4406C8.19562 38.0666 9.13616 36.5954 9.13616 36.5954Z" fill="#16161D"/>
<path d="M6.68699 32.6879C6.68699 32.6879 5.50733 31.1958 3.8925 30.6005C1.78509 29.8236 0.794535 31.3489 0.765625 31.3871C0.765625 31.3871 1.62916 32.6912 3.4308 33.2629C5.84737 34.0298 6.68699 32.6879 6.68699 32.6879Z" fill="#16161D"/>
<path d="M5.5209 29.5778C5.5209 29.5778 4.42225 27.5703 2.7836 26.6229C1.19177 25.7019 0.0288627 26.4862 0 26.5169C0 26.5169 0.81771 28.3099 2.32211 29.1692C4.36613 30.3366 5.5209 29.5778 5.5209 29.5778Z" fill="#16161D"/>
<path d="M5.16689 26.8484C4.58049 26.1865 4.53681 24.3874 3.69865 22.9276C2.52939 20.8908 0.600639 21.0385 0.571777 21.0577C0.571777 21.0577 0.778261 23.5951 2.24044 25.1288C3.79439 26.7587 5.16689 26.8484 5.16689 26.8484Z" fill="#16161D"/>
<path d="M5.00481 22.5708C5.00481 22.5708 5.06173 20.3653 4.57702 18.6905C3.90084 16.3542 2.05497 15.8955 2.02291 15.9047C2.02291 15.9047 1.72357 18.4029 2.79355 20.3476C3.93071 22.4144 5.00481 22.5708 5.00481 22.5708Z" fill="#16161D"/>
<path d="M5.78654 18.4373C5.78654 18.4373 6.15473 16.5859 5.9682 14.827C5.68707 12.1764 3.96796 11.6152 3.93512 11.6191C3.93512 11.6191 3.3458 14.0742 4.18417 16.1762C5.07516 18.41 5.78654 18.4373 5.78654 18.4373Z" fill="#16161D"/>
<path d="M7.3009 13.9997C7.3009 13.9997 7.89959 12.3248 7.82289 10.5544C7.71641 8.09722 6.32877 7.05917 6.29583 7.05774C6.29583 7.05774 4.95788 8.50523 5.72632 11.621C6.19246 13.511 7.3009 13.9997 7.3009 13.9997Z" fill="#16161D"/>
<path d="M9.2274 10.3509C9.2274 10.3509 10.117 8.70646 10.3632 6.95832C10.5943 5.31715 10.0394 3.52916 9.91549 3.36485C9.91549 3.36485 8.46778 4.12827 8.52199 7.05815C8.5584 9.02875 9.2274 10.3509 9.2274 10.3509Z" fill="#16161D"/>
<path d="M11.5948 6.83022C11.5948 6.83022 12.6556 5.47477 12.9319 3.62142C13.1606 2.08556 12.9301 0.416563 12.6891 0C12.6891 0 11.3053 1.03153 11.2049 3.64024C11.129 5.60918 11.4851 6.54608 11.5948 6.83022Z" fill="#16161D"/>
<path d="M13.3115 4.67139C13.3115 4.67139 15.3332 4.75903 16.338 4.05905C17.4627 3.27554 18.5665 1.57487 18.6535 1.0784C18.6535 1.0784 16.8828 0.146757 15.2318 1.84852C13.9858 3.1329 13.4085 4.38067 13.3115 4.67139Z" fill="#16161D"/>
<path d="M11.0846 7.59744C11.0846 7.59744 12.0516 6.23896 13.7132 5.88799C14.9941 5.61748 15.9787 5.86724 16.6109 6.30923C16.6109 6.30923 15.6356 7.80853 13.7663 8.01522C12.1305 8.19605 11.3249 7.71966 11.0846 7.59744Z" fill="#16161D"/>
<path d="M9.08553 10.7299C9.08553 10.7299 10.0062 9.4269 11.668 9.07593C12.9488 8.80545 13.5639 9.08292 14.196 9.52496C14.196 9.52496 13.4171 10.9549 11.5477 11.1615C9.91198 11.3424 9.32584 10.8521 9.08553 10.7299Z" fill="#16161D"/>
<path d="M7.14551 14.8163C7.14551 14.8163 8.00569 13.2103 9.56101 12.4254C11.1548 11.6212 11.9733 12.0052 12.6588 12.3122C12.4402 12.7057 11.5456 14.3457 10.0952 14.838C8.51455 15.3745 7.3996 14.8878 7.14551 14.8163Z" fill="#16161D"/>
<path d="M5.99463 18.4448C5.99463 18.4448 6.75685 16.7691 8.26138 15.8528C9.80311 14.9137 10.6424 15.2266 11.3444 15.4739C11.1499 15.8852 10.3553 17.5977 8.93806 18.2133C7.39338 18.8841 6.25233 18.4944 5.99463 18.4448Z" fill="#16161D"/>
<path d="M5.39014 22.7578C6.04977 21.743 6.40837 20.652 7.42327 19.5663C8.6736 18.2287 9.74651 18.6551 10.4747 18.7415C10.1162 19.5493 9.57805 20.8272 8.46573 21.79C7.1335 22.9432 5.65104 22.749 5.39014 22.7578Z" fill="#16161D"/>
<path d="M5.47168 26.7316C6.03255 25.6347 6.29872 24.7797 7.20598 23.5644C8.32373 22.0674 9.38346 22.3332 10.1151 22.3213C9.83423 23.1721 9.3608 24.4449 8.34526 25.551C7.12895 26.8759 5.73007 26.6878 5.47168 26.7316Z" fill="#16161D"/>
<path d="M6.19385 29.9C7.03767 28.3369 6.93119 27.9831 7.75708 26.687C8.64407 25.2951 9.7644 25.3334 10.4929 25.251C10.2698 26.1262 9.93642 27.31 8.99086 28.5022C7.98252 29.7734 6.93366 29.6097 6.19385 29.9Z" fill="#16161D"/>
<path d="M7.57959 33.004C8.11156 31.621 8.01973 30.7574 8.50748 29.7771C9.30528 28.1738 10.0874 28.1046 10.8159 28.0224C10.2348 30.0199 10.3694 30.0292 9.72976 31.2457C9.10729 32.4296 8.26166 32.5889 7.57959 33.004Z" fill="#16161D"/>
<path d="M9.25098 35.6151C9.55408 34.136 9.24628 33.6834 9.56986 32.6097C10.0991 30.8536 10.8561 30.6073 11.5582 30.3604C11.4775 31.5392 11.5993 32.2871 11.0487 33.5648C10.6598 34.4672 9.85484 35.0521 9.25098 35.6151Z" fill="#16161D"/>
<path d="M12.6202 32.7117C12.6202 32.7117 13.2283 34.1203 13.0263 35.7528C12.7402 38.0658 11.71 38.4123 11.71 38.4123C11.71 38.4123 11.1233 37.361 11.183 35.2278C11.2466 32.9493 12.6202 32.7117 12.6202 32.7117Z" fill="#16161D"/>
<path d="M14.8144 35.0668C14.8144 35.0668 15.4229 36.4929 15.2898 38.1356C15.1191 40.2407 14.1583 40.7674 14.1583 40.7674C14.1583 40.7674 13.553 39.5922 13.5272 37.8186C13.4879 35.1104 14.8144 35.0668 14.8144 35.0668Z" fill="#16161D"/>
<path d="M46.0302 9.42H51.0342V10.272H47.0742V13.188H50.2662V14.04H47.0742V17.148H51.2502V18H46.0302V9.42ZM57.5991 18.108C57.0231 18.108 56.5351 18.036 56.1351 17.892C55.7431 17.74 55.4191 17.54 55.1631 17.292C54.9071 17.044 54.7111 16.756 54.5751 16.428C54.4471 16.1 54.3631 15.752 54.3231 15.384H55.3311C55.3631 15.64 55.4191 15.884 55.4991 16.116C55.5791 16.34 55.7031 16.54 55.8711 16.716C56.0391 16.884 56.2591 17.02 56.5311 17.124C56.8111 17.22 57.1671 17.268 57.5991 17.268C57.8791 17.268 58.1351 17.232 58.3671 17.16C58.6071 17.08 58.8151 16.968 58.9911 16.824C59.1671 16.68 59.3031 16.508 59.3991 16.308C59.5031 16.108 59.5551 15.888 59.5551 15.648C59.5551 15.408 59.5231 15.2 59.4591 15.024C59.3951 14.84 59.2831 14.684 59.1231 14.556C58.9711 14.428 58.7591 14.32 58.4871 14.232C58.2231 14.144 57.8871 14.068 57.4791 14.004C57.0311 13.932 56.6271 13.84 56.2671 13.728C55.9151 13.616 55.6151 13.472 55.3671 13.296C55.1271 13.112 54.9391 12.888 54.8031 12.624C54.6751 12.352 54.6111 12.024 54.6111 11.64C54.6111 11.312 54.6791 11.008 54.8151 10.728C54.9511 10.44 55.1391 10.192 55.3791 9.984C55.6271 9.776 55.9191 9.612 56.2551 9.492C56.5911 9.372 56.9631 9.312 57.3711 9.312C58.2351 9.312 58.9191 9.516 59.4231 9.924C59.9351 10.324 60.2351 10.908 60.3231 11.676H59.3871C59.2831 11.132 59.0711 10.744 58.7511 10.512C58.4311 10.272 57.9711 10.152 57.3711 10.152C56.7791 10.152 56.3311 10.284 56.0271 10.548C55.7311 10.804 55.5831 11.136 55.5831 11.544C55.5831 11.752 55.6071 11.94 55.6551 12.108C55.7111 12.268 55.8111 12.408 55.9551 12.528C56.1071 12.648 56.3151 12.756 56.5791 12.852C56.8511 12.94 57.2071 13.016 57.6471 13.08C58.1271 13.152 58.5471 13.248 58.9071 13.368C59.2671 13.488 59.5711 13.644 59.8191 13.836C60.0671 14.028 60.2511 14.264 60.3711 14.544C60.4991 14.824 60.5631 15.168 60.5631 15.576C60.5631 15.936 60.4871 16.272 60.3351 16.584C60.1911 16.888 59.9871 17.156 59.7231 17.388C59.4591 17.612 59.1431 17.788 58.7751 17.916C58.4151 18.044 58.0231 18.108 57.5991 18.108ZM65.8098 10.272H63.3138V9.42H69.3498V10.272H66.8538V18H65.8098V10.272ZM71.943 18.06C71.735 18.06 71.555 17.988 71.403 17.844C71.251 17.692 71.175 17.508 71.175 17.292C71.175 17.076 71.251 16.896 71.403 16.752C71.555 16.6 71.735 16.524 71.943 16.524C72.151 16.524 72.331 16.6 72.483 16.752C72.635 16.896 72.711 17.076 72.711 17.292C72.711 17.508 72.635 17.692 72.483 17.844C72.331 17.988 72.151 18.06 71.943 18.06ZM39.5522 32.76L42.9602 29.172C43.3522 28.756 43.6562 28.348 43.8722 27.948C44.0882 27.548 44.1962 27.128 44.1962 26.688C44.1962 26.208 44.0602 25.832 43.7882 25.56C43.5242 25.288 43.1482 25.152 42.6602 25.152C42.1562 25.152 41.7482 25.3 41.4362 25.596C41.1322 25.892 40.9362 26.38 40.8482 27.06H39.8762C39.9402 26.212 40.2122 25.544 40.6922 25.056C41.1802 24.56 41.8362 24.312 42.6602 24.312C43.4602 24.312 44.0922 24.528 44.5562 24.96C45.0202 25.392 45.2522 25.98 45.2522 26.724C45.2522 27.252 45.0962 27.776 44.7842 28.296C44.4722 28.808 44.0522 29.324 43.5242 29.844L41.1602 32.148H45.3002V33H39.5522V32.76ZM52.0382 32.244C52.7902 32.244 53.3542 31.964 53.7302 31.404C54.1142 30.844 54.3062 30.016 54.3062 28.92V28.44C54.3062 27.944 54.2542 27.496 54.1502 27.096C54.0462 26.688 53.8942 26.34 53.6942 26.052C53.5022 25.764 53.2622 25.544 52.9742 25.392C52.6942 25.232 52.3742 25.152 52.0142 25.152C51.2862 25.152 50.7182 25.44 50.3102 26.016C49.9022 26.584 49.6982 27.4 49.6982 28.464V28.944C49.6982 30.04 49.9062 30.864 50.3222 31.416C50.7462 31.968 51.3182 32.244 52.0382 32.244ZM52.0382 33.108C51.5262 33.108 51.0582 33.008 50.6342 32.808C50.2182 32.608 49.8622 32.328 49.5662 31.968C49.2702 31.608 49.0382 31.172 48.8702 30.66C48.7102 30.148 48.6302 29.58 48.6302 28.956V28.476C48.6302 27.844 48.7062 27.272 48.8582 26.76C49.0182 26.248 49.2422 25.812 49.5302 25.452C49.8262 25.084 50.1822 24.804 50.5982 24.612C51.0142 24.412 51.4862 24.312 52.0142 24.312C52.5422 24.312 53.0142 24.412 53.4302 24.612C53.8462 24.812 54.1942 25.096 54.4742 25.464C54.7622 25.832 54.9822 26.268 55.1342 26.772C55.2862 27.276 55.3622 27.836 55.3622 28.452V28.932C55.3622 29.556 55.2862 30.124 55.1342 30.636C54.9902 31.148 54.7742 31.588 54.4862 31.956C54.2062 32.324 53.8582 32.608 53.4422 32.808C53.0342 33.008 52.5662 33.108 52.0382 33.108ZM62.2061 32.244C62.9581 32.244 63.5221 31.964 63.8981 31.404C64.2821 30.844 64.4741 30.016 64.4741 28.92V28.44C64.4741 27.944 64.4221 27.496 64.3181 27.096C64.2141 26.688 64.0621 26.34 63.8621 26.052C63.6701 25.764 63.4301 25.544 63.1421 25.392C62.8621 25.232 62.5421 25.152 62.1821 25.152C61.4541 25.152 60.8861 25.44 60.4781 26.016C60.0701 26.584 59.8661 27.4 59.8661 28.464V28.944C59.8661 30.04 60.0741 30.864 60.4901 31.416C60.9141 31.968 61.4861 32.244 62.2061 32.244ZM62.2061 33.108C61.6941 33.108 61.2261 33.008 60.8021 32.808C60.3861 32.608 60.0301 32.328 59.7341 31.968C59.4381 31.608 59.2061 31.172 59.0381 30.66C58.8781 30.148 58.7981 29.58 58.7981 28.956V28.476C58.7981 27.844 58.8741 27.272 59.0261 26.76C59.1861 26.248 59.4101 25.812 59.6981 25.452C59.9941 25.084 60.3501 24.804 60.7661 24.612C61.1821 24.412 61.6541 24.312 62.1821 24.312C62.7101 24.312 63.1821 24.412 63.5981 24.612C64.0141 24.812 64.3621 25.096 64.6421 25.464C64.9301 25.832 65.1501 26.268 65.3021 26.772C65.4541 27.276 65.5301 27.836 65.5301 28.452V28.932C65.5301 29.556 65.4541 30.124 65.3021 30.636C65.1581 31.148 64.9421 31.588 64.6541 31.956C64.3741 32.324 64.0261 32.608 63.6101 32.808C63.2021 33.008 62.7341 33.108 62.2061 33.108ZM72.0501 33.108C71.4661 33.108 70.9741 33.008 70.5741 32.808C70.1821 32.6 69.8661 32.32 69.6261 31.968C69.3861 31.608 69.2141 31.192 69.1101 30.72C69.0141 30.248 68.9661 29.744 68.9661 29.208V29.004C68.9661 28.236 69.0461 27.56 69.2061 26.976C69.3741 26.384 69.6061 25.892 69.9021 25.5C70.2061 25.108 70.5621 24.812 70.9701 24.612C71.3861 24.412 71.8381 24.312 72.3261 24.312C72.9981 24.312 73.5541 24.484 73.9941 24.828C74.4421 25.172 74.7221 25.692 74.8341 26.388H73.8381C73.7421 25.988 73.5741 25.684 73.3341 25.476C73.0941 25.268 72.7341 25.164 72.2541 25.164C71.6061 25.164 71.0741 25.452 70.6581 26.028C70.2421 26.604 70.0221 27.46 69.9981 28.596C70.2061 28.244 70.4981 27.964 70.8741 27.756C71.2581 27.54 71.7021 27.432 72.2061 27.432C72.6301 27.432 73.0141 27.504 73.3581 27.648C73.7101 27.792 74.0061 27.992 74.2461 28.248C74.4941 28.496 74.6821 28.792 74.8101 29.136C74.9461 29.48 75.0141 29.848 75.0141 30.24C75.0141 30.672 74.9421 31.064 74.7981 31.416C74.6621 31.768 74.4661 32.072 74.2101 32.328C73.9541 32.576 73.6421 32.768 73.2741 32.904C72.9141 33.04 72.5061 33.108 72.0501 33.108ZM72.0501 32.292C72.6181 32.292 73.0741 32.112 73.4181 31.752C73.7701 31.384 73.9461 30.896 73.9461 30.288C73.9461 29.664 73.7741 29.168 73.4301 28.8C73.0861 28.432 72.6221 28.248 72.0381 28.248C71.7501 28.248 71.4861 28.296 71.2461 28.392C71.0061 28.48 70.7981 28.608 70.6221 28.776C70.4461 28.944 70.3101 29.144 70.2141 29.376C70.1181 29.608 70.0701 29.864 70.0701 30.144C70.0701 30.848 70.2541 31.384 70.6221 31.752C70.9981 32.112 71.4741 32.292 72.0501 32.292Z" fill="#16161D"/>
<path d="M99.5051 2.68979C100.297 3.36359 101.172 4.19798 101.878 5.12864C103.129 6.77986 104.371 8.64138 105.438 10.504C106.159 11.7622 107.094 13.6715 107.605 15.076C108.285 16.9451 108.687 18.2546 109.06 20.3082C109.586 23.2012 109.514 26.1703 108.98 28.9693C108.194 33.0872 105.68 36.5327 103.168 39.3296C101.202 41.5174 98.56 42.9487 96.2383 44L96 43.1976C98.3007 42.1558 100.739 40.7653 102.623 38.6658C105.046 35.9654 107.283 32.672 108.249 28.7467C108.837 26.3576 108.973 23.7362 108.665 21.1982C108.395 18.9745 107.715 16.746 107.053 14.7197C106.509 13.0541 105.875 11.7565 105.101 10.3898C104.12 8.65697 103.041 6.96706 101.895 5.42401C101.153 4.4252 100.161 3.52347 99.3641 2.84549L99.5051 2.68979Z" fill="#16161D"/>
<path d="M100.515 41.5455C100.515 41.5455 102.146 40.8925 103.44 41.0849C105.495 41.3902 105.684 43.0057 105.684 43.0057C105.684 43.0057 104.86 43.6539 103.092 43.4076C101.021 43.119 100.515 41.5455 100.515 41.5455Z" fill="#16161D"/>
<path d="M103.288 39.1333C103.288 39.1333 104.662 38.3077 105.965 38.32C108.221 38.3411 108.356 39.8587 108.356 39.8587C108.356 39.8587 107.54 40.6048 105.733 40.5741C103.65 40.5387 103.288 39.1333 103.288 39.1333Z" fill="#16161D"/>
<path d="M105.346 36.5954C105.346 36.5954 106.653 35.1448 107.917 34.7437C110.105 34.0492 110.83 35.6618 110.83 35.6618C110.83 35.6618 110.016 36.8978 108.261 37.4406C106.237 38.0666 105.346 36.5954 105.346 36.5954Z" fill="#16161D"/>
<path d="M107.664 32.6879C107.664 32.6879 108.782 31.1958 110.311 30.6005C112.308 29.8236 113.246 31.3489 113.273 31.3871C113.273 31.3871 112.455 32.6912 110.749 33.2629C108.459 34.0298 107.664 32.6879 107.664 32.6879Z" fill="#16161D"/>
<path d="M108.77 29.5776C108.77 29.5776 109.81 27.5701 111.363 26.6227C112.871 25.7021 113.972 26.4861 114 26.5169C114 26.5169 113.225 28.31 111.8 29.1693C109.864 30.3366 108.77 29.5776 108.77 29.5776Z" fill="#16161D"/>
<path d="M109.103 26.8485C109.658 26.1867 109.7 24.3876 110.494 22.9276C111.602 20.8908 113.429 21.0385 113.456 21.0576C113.456 21.0576 113.26 23.5951 111.875 25.1287C110.403 26.7586 109.103 26.8485 109.103 26.8485Z" fill="#16161D"/>
<path d="M109.26 22.5708C109.26 22.5708 109.206 20.3653 109.665 18.6905C110.306 16.3542 112.054 15.8955 112.085 15.9047C112.085 15.9047 112.368 18.4029 111.355 20.3476C110.277 22.4144 109.26 22.5708 109.26 22.5708Z" fill="#16161D"/>
<path d="M108.518 18.4373C108.518 18.4373 108.169 16.5859 108.346 14.827C108.612 12.1764 110.241 11.6152 110.272 11.6191C110.272 11.6191 110.83 14.0742 110.036 16.1762C109.192 18.41 108.518 18.4373 108.518 18.4373Z" fill="#16161D"/>
<path d="M107.084 13.9997C107.084 13.9997 106.517 12.3248 106.589 10.5544C106.69 8.09722 108.005 7.05917 108.036 7.05774C108.036 7.05774 109.303 8.50523 108.576 11.621C108.134 13.511 107.084 13.9997 107.084 13.9997Z" fill="#16161D"/>
<path d="M105.256 10.3509C105.256 10.3509 104.413 8.70646 104.18 6.95832C103.961 5.31715 104.487 3.52916 104.604 3.36485C104.604 3.36485 105.975 4.12827 105.924 7.05815C105.889 9.02875 105.256 10.3509 105.256 10.3509Z" fill="#16161D"/>
<path d="M103.015 6.83049C103.015 6.83049 102.01 5.47504 101.748 3.62169C101.531 2.08556 101.75 0.416563 101.979 0C101.979 0 103.289 1.03153 103.385 3.64024C103.456 5.60918 103.119 6.54636 103.015 6.83049Z" fill="#16161D"/>
<path d="M101.39 4.67139C101.39 4.67139 99.4749 4.75903 98.5231 4.05905C97.4577 3.27554 96.4121 1.57487 96.3296 1.0784C96.3296 1.0784 98.007 0.146757 99.571 1.84852C100.751 3.1329 101.298 4.38067 101.39 4.67139Z" fill="#16161D"/>
<path d="M103.501 7.59744C103.501 7.59744 102.585 6.23896 101.011 5.88799C99.7973 5.61748 98.8645 5.86724 98.2656 6.30923C98.2656 6.30923 99.1896 7.80853 100.96 8.01522C102.51 8.19605 103.273 7.71966 103.501 7.59744Z" fill="#16161D"/>
<path d="M105.39 10.7299C105.39 10.7299 104.518 9.4269 102.944 9.07593C101.73 8.80545 101.148 9.08292 100.549 9.52496C100.549 9.52496 101.287 10.9549 103.058 11.1615C104.607 11.3424 105.162 10.8521 105.39 10.7299Z" fill="#16161D"/>
<path d="M107.232 14.8163C107.232 14.8163 106.417 13.2103 104.943 12.4254C103.434 11.6212 102.658 12.0052 102.009 12.3122C102.216 12.7057 103.063 14.3457 104.437 14.838C105.935 15.3745 106.991 14.8878 107.232 14.8163Z" fill="#16161D"/>
<path d="M108.318 18.4448C108.318 18.4448 107.596 16.7691 106.171 15.8528C104.711 14.9137 103.916 15.2266 103.25 15.4739C103.435 15.8852 104.187 17.5977 105.53 18.2133C106.993 18.8841 108.074 18.4944 108.318 18.4448Z" fill="#16161D"/>
<path d="M108.891 22.7578C108.266 21.743 107.927 20.652 106.965 19.5663C105.781 18.2287 104.764 18.6551 104.075 18.7415C104.414 19.5493 104.924 20.8272 105.978 21.79C107.24 22.9432 108.644 22.749 108.891 22.7578Z" fill="#16161D"/>
<path d="M108.818 26.7316C108.286 25.6347 108.034 24.7797 107.175 23.5644C106.116 22.0674 105.112 22.3332 104.419 22.3213C104.685 23.1721 105.133 24.4449 106.095 25.551C107.248 26.8759 108.573 26.6878 108.818 26.7316Z" fill="#16161D"/>
<path d="M108.133 29.9C107.334 28.3369 107.435 27.9831 106.652 26.687C105.812 25.2951 104.751 25.3334 104.061 25.251C104.272 26.1262 104.588 27.31 105.483 28.5022C106.439 29.7734 107.432 29.6097 108.133 29.9Z" fill="#16161D"/>
<path d="M106.819 33.004C106.315 31.621 106.402 30.7574 105.94 29.7771C105.184 28.1738 104.444 28.1046 103.753 28.0224C104.304 30.0199 104.176 30.0292 104.782 31.2457C105.372 32.4296 106.173 32.5889 106.819 33.004Z" fill="#16161D"/>
<path d="M105.234 35.6151C104.946 34.136 105.238 33.6834 104.931 32.6097C104.43 30.8536 103.713 30.6073 103.048 30.3604C103.124 31.5392 103.009 32.2871 103.531 33.5648C103.899 34.4672 104.662 35.0521 105.234 35.6151Z" fill="#16161D"/>
<path d="M102.045 32.7117C102.045 32.7117 101.469 34.1203 101.661 35.7528C101.932 38.0658 102.907 38.4123 102.907 38.4123C102.907 38.4123 103.463 37.361 103.407 35.2278C103.346 32.9493 102.045 32.7117 102.045 32.7117Z" fill="#16161D"/>
<path d="M99.9649 35.0668C99.9649 35.0668 99.3885 36.4929 99.5146 38.1356C99.6763 40.2407 100.587 40.7674 100.587 40.7674C100.587 40.7674 101.16 39.5922 101.184 37.8186C101.222 35.1104 99.9649 35.0668 99.9649 35.0668Z" fill="#16161D"/>
</g>
<defs>
<clipPath id="clip0_696_1693">
<rect width="114" height="44" fill="white"/>
</clipPath>
</defs>
</svg>
